{
    "asset" : {
        "generator" : "Khronos glTF Blender I/O v1.8.19",
        "version" : "2.0"
    },
    "scene" : 0,
    "scenes" : [
        {
            "name" : "Scene",
            "nodes" : [
                0
            ]
        }
    ],
    "nodes" : [
        {
            "mesh" : 0,
            "name" : "Curve.045",
            "scale" : [
                999,
                999,
                999
            ]
        }
    ],
    "materials" : [
        {
            "doubleSided" : true,
            "emissiveFactor" : [
                1,
                1,
                1
            ],
            "name" : "Material.001",
            "pbrMetallicRoughness" : {
                "baseColorFactor" : [
                    40.46007537841797,
                    5.6501312255859375,
                    10.964423179626465,
                    1
                ],
                "metallicFactor" : 0,
                "roughnessFactor" : 0.5
            }
        },
        {
            "doubleSided" : true,
            "name" : "SVGMat",
            "pbrMetallicRoughness" : {
                "baseColorFactor" : [
                    0,
                    0,
                    0,
                    1
                ],
                "metallicFactor" : 0,
                "roughnessFactor" : 0.4000000059604645
            }
        },
        {
            "doubleSided" : true,
            "name" : "Material.003",
            "pbrMetallicRoughness" : {
                "baseColorFactor" : [
                    40.46007537841797,
                    0.5412309169769287,
                    0,
                    1
                ],
                "metallicFactor" : 0,
                "roughnessFactor" : 0.5
            }
        },
        {
            "doubleSided" : true,
            "name" : "SVGMat.001",
            "pbrMetallicRoughness" : {
                "baseColorFactor" : [
                    0.8000000715255737,
                    0.03322277218103409,
                    0.017954936251044273,
                    1
                ],
                "metallicFactor" : 0,
                "roughnessFactor" : 0.5
            }
        },
        {
            "doubleSided" : true,
            "name" : "Material",
            "pbrMetallicRoughness" : {
                "baseColorFactor" : [
                    0.009099836461246014,
                    0.8000000715255737,
                    0.009871145710349083,
                    1
                ],
                "metallicFactor" : 0,
                "roughnessFactor" : 0.4000000059604645
            }
        },
        {
            "doubleSided" : true,
            "name" : "Material.002",
            "pbrMetallicRoughness" : {
                "baseColorFactor" : [
                    0.800000011920929,
                    0.800000011920929,
                    0.800000011920929,
                    1
                ],
                "metallicFactor" : 0,
                "roughnessFactor" : 0.5
            }
        },
        {
            "doubleSided" : true,
            "name" : "Material.004",
            "pbrMetallicRoughness" : {
                "baseColorFactor" : [
                    0.8000000715255737,
                    0.24004782736301422,
                    0.012447033077478409,
                    1
                ],
                "metallicFactor" : 0,
                "roughnessFactor" : 0.5
            }
        }
    ],
    "meshes" : [
        {
            "name" : "Mesh.045",
            "primitives" : [
                {
                    "attributes" : {
                        "POSITION" : 0,
                        "NORMAL" : 1,
                        "TEXCOORD_0" : 2
                    },
                    "indices" : 3,
                    "material" : 0
                },
                {
                    "attributes" : {
                        "POSITION" : 4,
                        "NORMAL" : 5,
                        "TEXCOORD_0" : 6
                    },
                    "indices" : 7,
                    "material" : 1
                },
                {
                    "attributes" : {
                        "POSITION" : 8,
                        "NORMAL" : 9,
                        "TEXCOORD_0" : 10
                    },
                    "indices" : 11,
                    "material" : 2
                },
                {
                    "attributes" : {
                        "POSITION" : 12,
                        "NORMAL" : 13,
                        "TEXCOORD_0" : 14
                    },
                    "indices" : 15,
                    "material" : 3
                },
                {
                    "attributes" : {
                        "POSITION" : 16,
                        "NORMAL" : 17,
                        "TEXCOORD_0" : 18
                    },
                    "indices" : 19,
                    "material" : 4
                },
                {
                    "attributes" : {
                        "POSITION" : 20,
                        "NORMAL" : 21,
                        "TEXCOORD_0" : 22
                    },
                    "indices" : 23,
                    "material" : 5
                },
                {
                    "attributes" : {
                        "POSITION" : 24,
                        "NORMAL" : 25,
                        "TEXCOORD_0" : 26
                    },
                    "indices" : 27,
                    "material" : 6
                }
            ]
        }
    ],
    "accessors" : [
        {
            "bufferView" : 0,
            "componentType" : 5126,
            "count" : 690,
            "max" : [
                0.04657543823122978,
                0.011660275049507618,
                0.04571127891540527
            ],
            "min" : [
                -0.0010010009864345193,
                -0.0010010009864345193,
                -0.0019662172999233007
            ],
            "type" : "VEC3"
        },
        {
            "bufferView" : 1,
            "componentType" : 5126,
            "count" : 690,
            "type" : "VEC3"
        },
        {
            "bufferView" : 2,
            "componentType" : 5126,
            "count" : 690,
            "type" : "VEC2"
        },
        {
            "bufferView" : 3,
            "componentType" : 5123,
            "count" : 1182,
            "type" : "SCALAR"
        },
        {
            "bufferView" : 4,
            "componentType" : 5126,
            "count" : 888,
            "max" : [
                0.037544142454862595,
                0.006006006151437759,
                0.041196584701538086
            ],
            "min" : [
                0.005080103874206543,
                0,
                -0.0004008794203400612
            ],
            "type" : "VEC3"
        },
        {
            "bufferView" : 5,
            "componentType" : 5126,
            "count" : 888,
            "type" : "VEC3"
        },
        {
            "bufferView" : 6,
            "componentType" : 5126,
            "count" : 888,
            "type" : "VEC2"
        },
        {
            "bufferView" : 7,
            "componentType" : 5123,
            "count" : 1728,
            "type" : "SCALAR"
        },
        {
            "bufferView" : 8,
            "componentType" : 5126,
            "count" : 1195,
            "max" : [
                0.04657543823122978,
                0.006006006151437759,
                0.04571127891540527
            ],
            "min" : [
                0.0005644559860229492,
                0,
                -0.0004008794203400612
            ],
            "type" : "VEC3"
        },
        {
            "bufferView" : 9,
            "componentType" : 5126,
            "count" : 1195,
            "type" : "VEC3"
        },
        {
            "bufferView" : 10,
            "componentType" : 5126,
            "count" : 1195,
            "type" : "VEC2"
        },
        {
            "bufferView" : 11,
            "componentType" : 5123,
            "count" : 1992,
            "type" : "SCALAR"
        },
        {
            "bufferView" : 12,
            "componentType" : 5126,
            "count" : 1307,
            "max" : [
                0.04657543823122978,
                0.006683363113552332,
                0.041196584701538086
            ],
            "min" : [
                0.005027477629482746,
                -0.0008989195339381695,
                -0.0004008794203400612
            ],
            "type" : "VEC3"
        },
        {
            "bufferView" : 13,
            "componentType" : 5126,
            "count" : 1307,
            "type" : "VEC3"
        },
        {
            "bufferView" : 14,
            "componentType" : 5126,
            "count" : 1307,
            "type" : "VEC2"
        },
        {
            "bufferView" : 15,
            "componentType" : 5123,
            "count" : 2502,
            "type" : "SCALAR"
        },
        {
            "bufferView" : 16,
            "componentType" : 5126,
            "count" : 531,
            "max" : [
                0.04205979034304619,
                0.006006006151437759,
                0.04571127891540527
            ],
            "min" : [
                0.009595751762390137,
                0,
                0.004113814793527126
            ],
            "type" : "VEC3"
        },
        {
            "bufferView" : 17,
            "componentType" : 5126,
            "count" : 531,
            "type" : "VEC3"
        },
        {
            "bufferView" : 18,
            "componentType" : 5126,
            "count" : 531,
            "type" : "VEC2"
        },
        {
            "bufferView" : 19,
            "componentType" : 5123,
            "count" : 1032,
            "type" : "SCALAR"
        },
        {
            "bufferView" : 20,
            "componentType" : 5126,
            "count" : 909,
            "max" : [
                0.04205979034304619,
                0.006006006151437759,
                0.04571127891540527
            ],
            "min" : [
                0.0005644559860229492,
                0,
                -0.0004008794203400612
            ],
            "type" : "VEC3"
        },
        {
            "bufferView" : 21,
            "componentType" : 5126,
            "count" : 909,
            "type" : "VEC3"
        },
        {
            "bufferView" : 22,
            "componentType" : 5126,
            "count" : 909,
            "type" : "VEC2"
        },
        {
            "bufferView" : 23,
            "componentType" : 5123,
            "count" : 1656,
            "type" : "SCALAR"
        },
        {
            "bufferView" : 24,
            "componentType" : 5126,
            "count" : 108,
            "max" : [
                0.0149659039452672,
                0.006006006151437759,
                0.041196584701538086
            ],
            "min" : [
                0.01411139965057373,
                0,
                0.008628509007394314
            ],
            "type" : "VEC3"
        },
        {
            "bufferView" : 25,
            "componentType" : 5126,
            "count" : 108,
            "type" : "VEC3"
        },
        {
            "bufferView" : 26,
            "componentType" : 5126,
            "count" : 108,
            "type" : "VEC2"
        },
        {
            "bufferView" : 27,
            "componentType" : 5123,
            "count" : 240,
            "type" : "SCALAR"
        }
    ],
    "bufferViews" : [
        {
            "buffer" : 0,
            "byteLength" : 8280,
            "byteOffset" : 0
        },
        {
            "buffer" : 0,
            "byteLength" : 8280,
            "byteOffset" : 8280
        },
        {
            "buffer" : 0,
            "byteLength" : 5520,
            "byteOffset" : 16560
        },
        {
            "buffer" : 0,
            "byteLength" : 2364,
            "byteOffset" : 22080
        },
        {
            "buffer" : 0,
            "byteLength" : 10656,
            "byteOffset" : 24444
        },
        {
            "buffer" : 0,
            "byteLength" : 10656,
            "byteOffset" : 35100
        },
        {
            "buffer" : 0,
            "byteLength" : 7104,
            "byteOffset" : 45756
        },
        {
            "buffer" : 0,
            "byteLength" : 3456,
            "byteOffset" : 52860
        },
        {
            "buffer" : 0,
            "byteLength" : 14340,
            "byteOffset" : 56316
        },
        {
            "buffer" : 0,
            "byteLength" : 14340,
            "byteOffset" : 70656
        },
        {
            "buffer" : 0,
            "byteLength" : 9560,
            "byteOffset" : 84996
        },
        {
            "buffer" : 0,
            "byteLength" : 3984,
            "byteOffset" : 94556
        },
        {
            "buffer" : 0,
            "byteLength" : 15684,
            "byteOffset" : 98540
        },
        {
            "buffer" : 0,
            "byteLength" : 15684,
            "byteOffset" : 114224
        },
        {
            "buffer" : 0,
            "byteLength" : 10456,
            "byteOffset" : 129908
        },
        {
            "buffer" : 0,
            "byteLength" : 5004,
            "byteOffset" : 140364
        },
        {
            "buffer" : 0,
            "byteLength" : 6372,
            "byteOffset" : 145368
        },
        {
            "buffer" : 0,
            "byteLength" : 6372,
            "byteOffset" : 151740
        },
        {
            "buffer" : 0,
            "byteLength" : 4248,
            "byteOffset" : 158112
        },
        {
            "buffer" : 0,
            "byteLength" : 2064,
            "byteOffset" : 162360
        },
        {
            "buffer" : 0,
            "byteLength" : 10908,
            "byteOffset" : 164424
        },
        {
            "buffer" : 0,
            "byteLength" : 10908,
            "byteOffset" : 175332
        },
        {
            "buffer" : 0,
            "byteLength" : 7272,
            "byteOffset" : 186240
        },
        {
            "buffer" : 0,
            "byteLength" : 3312,
            "byteOffset" : 193512
        },
        {
            "buffer" : 0,
            "byteLength" : 1296,
            "byteOffset" : 196824
        },
        {
            "buffer" : 0,
            "byteLength" : 1296,
            "byteOffset" : 198120
        },
        {
            "buffer" : 0,
            "byteLength" : 864,
            "byteOffset" : 199416
        },
        {
            "buffer" : 0,
            "byteLength" : 480,
            "byteOffset" : 200280
        }
    ],
    "buffers" : [
        {
            "byteLength" : 200760,
            "uri" : "data:application/octet-stream;base64,"
        }
    ]
}
