{
    "asset" : {
        "generator" : "Khronos glTF Blender I/O v1.8.19",
        "version" : "2.0"
    },
    "scene" : 0,
    "scenes" : [
        {
            "name" : "Scene",
            "nodes" : [
                0
            ]
        }
    ],
    "nodes" : [
        {
            "mesh" : 0,
            "name" : "Plane",
            "scale" : [
                38.509376525878906,
                38.509376525878906,
                38.509376525878906
            ],
            "translation" : [
                -2.0305633544921875,
                -3.021425247192383,
                1.5703736543655396
            ]
        }
    ],
    "materials" : [
        {
            "doubleSided" : true,
            "name" : "Material.007",
            "pbrMetallicRoughness" : {
                "baseColorFactor" : [
                    0,
                    0.32594335079193115,
                    0.4399999678134918,
                    1
                ],
                "metallicFactor" : 0,
                "roughnessFactor" : 0.5
            }
        },
        {
            "doubleSided" : true,
            "name" : "Material.002",
            "pbrMetallicRoughness" : {
                "baseColorFactor" : [
                    0,
                    0,
                    1,
                    1
                ],
                "metallicFactor" : 0,
                "roughnessFactor" : 0.5
            }
        },
        {
            "doubleSided" : true,
            "name" : "Material.006",
            "pbrMetallicRoughness" : {
                "baseColorFactor" : [
                    0.01295738946646452,
                    0.6684428453445435,
                    0.8000000715255737,
                    1
                ],
                "metallicFactor" : 0,
                "roughnessFactor" : 0.5
            }
        },
        {
            "doubleSided" : true,
            "name" : "Material",
            "pbrMetallicRoughness" : {
                "baseColorFactor" : [
                    0.8000000715255737,
                    0.6385093331336975,
                    0,
                    1
                ],
                "metallicFactor" : 0,
                "roughnessFactor" : 0.4000000059604645
            }
        },
        {
            "doubleSided" : true,
            "name" : "Material.005",
            "pbrMetallicRoughness" : {
                "metallicFactor" : 0,
                "roughnessFactor" : 0.5
            }
        },
        {
            "doubleSided" : true,
            "name" : "Material.003",
            "pbrMetallicRoughness" : {
                "baseColorFactor" : [
                    0,
                    0,
                    0,
                    1
                ],
                "metallicFactor" : 0,
                "roughnessFactor" : 0.5
            }
        },
        {
            "doubleSided" : true,
            "name" : "Material.004",
            "pbrMetallicRoughness" : {
                "baseColorFactor" : [
                    0,
                    1,
                    0,
                    1
                ],
                "metallicFactor" : 0,
                "roughnessFactor" : 0.5
            }
        },
        {
            "doubleSided" : true,
            "name" : "Material.001",
            "pbrMetallicRoughness" : {
                "baseColorFactor" : [
                    1,
                    0,
                    0,
                    1
                ],
                "metallicFactor" : 0,
                "roughnessFactor" : 0.5
            }
        }
    ],
    "meshes" : [
        {
            "name" : "Plane",
            "primitives" : [
                {
                    "attributes" : {
                        "POSITION" : 0,
                        "NORMAL" : 1,
                        "TEXCOORD_0" : 2
                    },
                    "indices" : 3,
                    "material" : 0
                },
                {
                    "attributes" : {
                        "POSITION" : 4,
                        "NORMAL" : 5,
                        "TEXCOORD_0" : 6
                    },
                    "indices" : 7,
                    "material" : 1
                },
                {
                    "attributes" : {
                        "POSITION" : 8,
                        "NORMAL" : 9,
                        "TEXCOORD_0" : 10
                    },
                    "indices" : 11,
                    "material" : 2
                },
                {
                    "attributes" : {
                        "POSITION" : 12,
                        "NORMAL" : 13,
                        "TEXCOORD_0" : 14
                    },
                    "indices" : 15,
                    "material" : 3
                },
                {
                    "attributes" : {
                        "POSITION" : 16,
                        "NORMAL" : 17,
                        "TEXCOORD_0" : 18
                    },
                    "indices" : 19
                },
                {
                    "attributes" : {
                        "POSITION" : 20,
                        "NORMAL" : 21,
                        "TEXCOORD_0" : 22
                    },
                    "indices" : 23,
                    "material" : 4
                },
                {
                    "attributes" : {
                        "POSITION" : 24,
                        "NORMAL" : 25,
                        "TEXCOORD_0" : 26
                    },
                    "indices" : 27,
                    "material" : 5
                },
                {
                    "attributes" : {
                        "POSITION" : 28,
                        "NORMAL" : 29,
                        "TEXCOORD_0" : 30
                    },
                    "indices" : 31,
                    "material" : 6
                },
                {
                    "attributes" : {
                        "POSITION" : 32,
                        "NORMAL" : 33,
                        "TEXCOORD_0" : 34
                    },
                    "indices" : 35,
                    "material" : 7
                }
            ]
        }
    ],
    "accessors" : [
        {
            "bufferView" : 0,
            "componentType" : 5126,
            "count" : 24,
            "max" : [
                1,
                0,
                1
            ],
            "min" : [
                -1,
                -0.040999993681907654,
                -1
            ],
            "type" : "VEC3"
        },
        {
            "bufferView" : 1,
            "componentType" : 5126,
            "count" : 24,
            "type" : "VEC3"
        },
        {
            "bufferView" : 2,
            "componentType" : 5126,
            "count" : 24,
            "type" : "VEC2"
        },
        {
            "bufferView" : 3,
            "componentType" : 5123,
            "count" : 36,
            "type" : "SCALAR"
        },
        {
            "bufferView" : 4,
            "componentType" : 5126,
            "count" : 140,
            "max" : [
                0.9919241666793823,
                0.5946547985076904,
                0.9974332451820374
            ],
            "min" : [
                -0.7766166925430298,
                -0.014033149927854538,
                -0.9211353063583374
            ],
            "type" : "VEC3"
        },
        {
            "bufferView" : 5,
            "componentType" : 5126,
            "count" : 140,
            "type" : "VEC3"
        },
        {
            "bufferView" : 6,
            "componentType" : 5126,
            "count" : 140,
            "type" : "VEC2"
        },
        {
            "bufferView" : 7,
            "componentType" : 5123,
            "count" : 228,
            "type" : "SCALAR"
        },
        {
            "bufferView" : 8,
            "componentType" : 5126,
            "count" : 116,
            "max" : [
                0.8000266551971436,
                0.5946547985076904,
                0.23000580072402954
            ],
            "min" : [
                -0.9685141444206238,
                -0.014033149927854538,
                -0.9729647636413574
            ],
            "type" : "VEC3"
        },
        {
            "bufferView" : 9,
            "componentType" : 5126,
            "count" : 116,
            "type" : "VEC3"
        },
        {
            "bufferView" : 10,
            "componentType" : 5126,
            "count" : 116,
            "type" : "VEC2"
        },
        {
            "bufferView" : 11,
            "componentType" : 5123,
            "count" : 192,
            "type" : "SCALAR"
        },
        {
            "bufferView" : 12,
            "componentType" : 5126,
            "count" : 80,
            "max" : [
                0.9919241666793823,
                0.5946547985076904,
                0.8055763840675354
            ],
            "min" : [
                -0.392821729183197,
                -0.014033149927854538,
                -0.9729647636413574
            ],
            "type" : "VEC3"
        },
        {
            "bufferView" : 13,
            "componentType" : 5126,
            "count" : 80,
            "type" : "VEC3"
        },
        {
            "bufferView" : 14,
            "componentType" : 5126,
            "count" : 80,
            "type" : "VEC2"
        },
        {
            "bufferView" : 15,
            "componentType" : 5123,
            "count" : 132,
            "type" : "SCALAR"
        },
        {
            "bufferView" : 16,
            "componentType" : 5126,
            "count" : 116,
            "max" : [
                0.6081291437149048,
                0.5946547985076904,
                -0.15370792150497437
            ],
            "min" : [
                -0.009026765823364258,
                -0.014033149927854538,
                -0.9211353063583374
            ],
            "type" : "VEC3"
        },
        {
            "bufferView" : 17,
            "componentType" : 5126,
            "count" : 116,
            "type" : "VEC3"
        },
        {
            "bufferView" : 18,
            "componentType" : 5126,
            "count" : 116,
            "type" : "VEC2"
        },
        {
            "bufferView" : 19,
            "componentType" : 5123,
            "count" : 192,
            "type" : "SCALAR"
        },
        {
            "bufferView" : 20,
            "componentType" : 5126,
            "count" : 112,
            "max" : [
                0.8000266551971436,
                0.5946547985076904,
                0.8055763840675354
            ],
            "min" : [
                -0.7766166925430298,
                -0.014033149927854538,
                -0.5892510414123535
            ],
            "type" : "VEC3"
        },
        {
            "bufferView" : 21,
            "componentType" : 5126,
            "count" : 112,
            "type" : "VEC3"
        },
        {
            "bufferView" : 22,
            "componentType" : 5126,
            "count" : 112,
            "type" : "VEC2"
        },
        {
            "bufferView" : 23,
            "componentType" : 5123,
            "count" : 192,
            "type" : "SCALAR"
        },
        {
            "bufferView" : 24,
            "componentType" : 5126,
            "count" : 260,
            "max" : [
                0.8000266551971436,
                0.5946547985076904,
                0.9974332451820374
            ],
            "min" : [
                -0.9685141444206238,
                -0.014033149927854538,
                -0.7292784452438354
            ],
            "type" : "VEC3"
        },
        {
            "bufferView" : 25,
            "componentType" : 5126,
            "count" : 260,
            "type" : "VEC3"
        },
        {
            "bufferView" : 26,
            "componentType" : 5126,
            "count" : 260,
            "type" : "VEC2"
        },
        {
            "bufferView" : 27,
            "componentType" : 5123,
            "count" : 444,
            "type" : "SCALAR"
        },
        {
            "bufferView" : 28,
            "componentType" : 5126,
            "count" : 196,
            "max" : [
                0.9919241666793823,
                0.5946547985076904,
                0.9974332451820374
            ],
            "min" : [
                -0.392821729183197,
                -0.014033149927854538,
                -0.9252482056617737
            ],
            "type" : "VEC3"
        },
        {
            "bufferView" : 29,
            "componentType" : 5126,
            "count" : 196,
            "type" : "VEC3"
        },
        {
            "bufferView" : 30,
            "componentType" : 5126,
            "count" : 196,
            "type" : "VEC2"
        },
        {
            "bufferView" : 31,
            "componentType" : 5123,
            "count" : 324,
            "type" : "SCALAR"
        },
        {
            "bufferView" : 32,
            "componentType" : 5126,
            "count" : 208,
            "max" : [
                0.8000266551971436,
                0.5946547985076904,
                0.9974332451820374
            ],
            "min" : [
                -0.9685141444206238,
                -0.014033149927854538,
                -0.956165075302124
            ],
            "type" : "VEC3"
        },
        {
            "bufferView" : 33,
            "componentType" : 5126,
            "count" : 208,
            "type" : "VEC3"
        },
        {
            "bufferView" : 34,
            "componentType" : 5126,
            "count" : 208,
            "type" : "VEC2"
        },
        {
            "bufferView" : 35,
            "componentType" : 5123,
            "count" : 348,
            "type" : "SCALAR"
        }
    ],
    "bufferViews" : [
        {
            "buffer" : 0,
            "byteLength" : 288,
            "byteOffset" : 0
        },
        {
            "buffer" : 0,
            "byteLength" : 288,
            "byteOffset" : 288
        },
        {
            "buffer" : 0,
            "byteLength" : 192,
            "byteOffset" : 576
        },
        {
            "buffer" : 0,
            "byteLength" : 72,
            "byteOffset" : 768
        },
        {
            "buffer" : 0,
            "byteLength" : 1680,
            "byteOffset" : 840
        },
        {
            "buffer" : 0,
            "byteLength" : 1680,
            "byteOffset" : 2520
        },
        {
            "buffer" : 0,
            "byteLength" : 1120,
            "byteOffset" : 4200
        },
        {
            "buffer" : 0,
            "byteLength" : 456,
            "byteOffset" : 5320
        },
        {
            "buffer" : 0,
            "byteLength" : 1392,
            "byteOffset" : 5776
        },
        {
            "buffer" : 0,
            "byteLength" : 1392,
            "byteOffset" : 7168
        },
        {
            "buffer" : 0,
            "byteLength" : 928,
            "byteOffset" : 8560
        },
        {
            "buffer" : 0,
            "byteLength" : 384,
            "byteOffset" : 9488
        },
        {
            "buffer" : 0,
            "byteLength" : 960,
            "byteOffset" : 9872
        },
        {
            "buffer" : 0,
            "byteLength" : 960,
            "byteOffset" : 10832
        },
        {
            "buffer" : 0,
            "byteLength" : 640,
            "byteOffset" : 11792
        },
        {
            "buffer" : 0,
            "byteLength" : 264,
            "byteOffset" : 12432
        },
        {
            "buffer" : 0,
            "byteLength" : 1392,
            "byteOffset" : 12696
        },
        {
            "buffer" : 0,
            "byteLength" : 1392,
            "byteOffset" : 14088
        },
        {
            "buffer" : 0,
            "byteLength" : 928,
            "byteOffset" : 15480
        },
        {
            "buffer" : 0,
            "byteLength" : 384,
            "byteOffset" : 16408
        },
        {
            "buffer" : 0,
            "byteLength" : 1344,
            "byteOffset" : 16792
        },
        {
            "buffer" : 0,
            "byteLength" : 1344,
            "byteOffset" : 18136
        },
        {
            "buffer" : 0,
            "byteLength" : 896,
            "byteOffset" : 19480
        },
        {
            "buffer" : 0,
            "byteLength" : 384,
            "byteOffset" : 20376
        },
        {
            "buffer" : 0,
            "byteLength" : 3120,
            "byteOffset" : 20760
        },
        {
            "buffer" : 0,
            "byteLength" : 3120,
            "byteOffset" : 23880
        },
        {
            "buffer" : 0,
            "byteLength" : 2080,
            "byteOffset" : 27000
        },
        {
            "buffer" : 0,
            "byteLength" : 888,
            "byteOffset" : 29080
        },
        {
            "buffer" : 0,
            "byteLength" : 2352,
            "byteOffset" : 29968
        },
        {
            "buffer" : 0,
            "byteLength" : 2352,
            "byteOffset" : 32320
        },
        {
            "buffer" : 0,
            "byteLength" : 1568,
            "byteOffset" : 34672
        },
        {
            "buffer" : 0,
            "byteLength" : 648,
            "byteOffset" : 36240
        },
        {
            "buffer" : 0,
            "byteLength" : 2496,
            "byteOffset" : 36888
        },
        {
            "buffer" : 0,
            "byteLength" : 2496,
            "byteOffset" : 39384
        },
        {
            "buffer" : 0,
            "byteLength" : 1664,
            "byteOffset" : 41880
        },
        {
            "buffer" : 0,
            "byteLength" : 696,
            "byteOffset" : 43544
        }
    ],
    "buffers" : [
        {
            "byteLength" : 44240,
            "uri" : "data:application/octet-stream;base64,"
        }
    ]
}
